<?xml version="1.0" standalone="no"?>
<!DOCTYPE svg PUBLIC "-//W3C//DTD SVG 20010904//EN"
 "http://www.w3.org/TR/2001/REC-SVG-20010904/DTD/svg10.dtd">
<svg version="1.0" xmlns="http://www.w3.org/2000/svg"
 width="800.000000pt" height="800.000000pt" viewBox="0 0 800.000000 800.000000"
 preserveAspectRatio="xMidYMid meet">
<metadata>
Created by potrace 1.14, written by Peter Selinger 2001-2017
</metadata>
<g transform="translate(0.000000,800.000000) scale(0.100000,-0.100000)"
fill="#000000" stroke="none">
<path d="M0 6815 l0 -1185 24 0 c34 0 170 18 239 31 41 9 57 16 57 28 0 14 26
16 223 20 214 3 273 -1 262 -19 -6 -10 45 -20 106 -20 37 0 49 -4 49 -15 0
-17 -2 -17 107 -19 44 0 76 2 70 6 -7 4 -37 8 -67 8 -64 0 -51 19 15 21 l40 1
-45 12 -45 11 84 3 c94 3 139 -7 81 -18 -31 -6 -28 -8 23 -9 54 -1 57 -2 57
-26 0 -14 6 -25 13 -25 6 0 75 -5 151 -10 86 -6 143 -7 149 -1 12 12 78 1 95
-16 22 -22 42 -15 49 17 6 34 23 51 23 24 0 -13 3 -14 14 -5 11 9 15 9 19 -1
3 -7 6 3 6 22 2 57 17 68 29 20 9 -36 8 -42 -9 -53 -33 -20 -22 -108 13 -102
18 4 20 0 16 -56 -3 -54 -1 -61 24 -82 22 -18 28 -32 32 -82 3 -33 12 -107 21
-165 8 -58 20 -161 26 -230 6 -69 12 -138 14 -155 2 -16 8 -66 14 -110 19
-159 61 -244 180 -369 48 -50 94 -102 103 -116 8 -14 23 -63 32 -109 20 -97
70 -203 116 -246 38 -35 60 -82 60 -126 0 -69 82 -255 125 -283 39 -26 65 -75
65 -124 0 -112 59 -212 132 -227 62 -12 78 -25 78 -65 0 -52 -54 -229 -99
-326 -51 -108 -135 -230 -171 -249 -16 -8 -47 -15 -70 -15 -61 0 -191 -29
-225 -50 -16 -11 -61 -53 -98 -95 -87 -95 -112 -106 -230 -101 -50 3 -98 1
-107 -4 -9 -5 -29 -28 -45 -52 -16 -24 -53 -73 -82 -110 -46 -57 -65 -73 -131
-104 -133 -64 -355 -173 -402 -199 -56 -31 -177 -71 -253 -84 -31 -6 -89 -25
-129 -42 -105 -46 -168 -67 -313 -104 -174 -44 -268 -70 -340 -93 -33 -11 -86
-25 -117 -32 l-58 -13 0 -649 0 -648 4000 0 4000 0 0 259 0 260 -30 58 c-16
32 -54 110 -85 173 -114 232 -167 297 -302 372 -137 76 -492 222 -653 268 -91
25 -224 76 -345 130 -11 5 -60 21 -110 35 -118 35 -201 64 -250 88 -75 37
-210 121 -255 161 -25 21 -72 51 -105 66 -60 28 -86 51 -117 101 -9 14 -34 46
-55 70 -21 25 -48 57 -61 73 -18 23 -34 31 -80 38 -49 8 -64 16 -103 54 -39
38 -66 52 -170 90 -114 41 -190 56 -206 40 -11 -11 -13 -45 -3 -51 5 -3 12
-28 16 -56 5 -40 9 -47 20 -38 8 6 14 8 15 3 1 -5 2 -18 3 -29 1 -15 9 -21 33
-23 30 -3 31 -5 26 -36 -3 -20 -1 -36 6 -40 11 -7 15 5 12 32 -2 14 18 16 38
3 8 -5 10 -14 6 -22 -5 -7 -9 -24 -11 -38 -4 -52 -43 -118 -80 -138 -138 -72
-169 -86 -299 -138 -38 -16 -82 -37 -97 -47 -14 -10 -32 -18 -38 -18 -7 0 -29
-9 -49 -19 -20 -11 -49 -24 -66 -29 -16 -6 -55 -20 -85 -32 -269 -106 -665
-130 -955 -57 -33 8 -78 18 -100 22 -21 4 -110 32 -197 63 -116 41 -157 59
-153 69 3 9 0 11 -7 7 -8 -5 -9 -2 -5 9 5 14 0 17 -29 17 -19 0 -51 7 -72 16
l-37 16 40 19 c22 10 34 19 26 19 -8 0 -12 2 -9 5 6 6 140 -44 148 -55 7 -10
70 -18 64 -8 -3 4 4 8 15 8 13 0 21 7 22 18 0 10 3 12 6 5 2 -7 8 -13 12 -13
15 0 62 46 54 53 -13 14 -12 40 3 61 8 11 14 15 14 8 0 -15 56 -16 65 -2 4 6
-7 13 -24 16 -25 5 -29 9 -17 18 22 18 25 51 10 128 -19 95 -25 159 -16 172 9
15 12 44 12 94 -1 52 31 89 82 94 23 2 37 11 46 28 l14 25 -6 -28 c-5 -22 -3
-27 12 -27 23 0 71 -43 74 -65 0 -8 1 -21 2 -27 0 -7 11 -23 24 -35 13 -13 19
-23 15 -24 -4 0 1 -4 12 -9 32 -14 89 -11 112 5 12 8 28 12 37 9 9 -4 16 -1
16 6 0 7 7 18 15 24 12 9 10 17 -13 53 -15 23 -32 42 -38 43 -36 1 -12 64 25
68 14 1 32 9 40 16 9 8 26 17 37 20 21 6 59 42 59 55 -1 9 45 44 75 58 44 20
64 25 110 29 24 3 51 11 60 19 9 9 40 21 68 27 31 8 54 19 57 29 3 9 24 22 48
29 87 26 112 35 117 40 43 43 219 150 247 150 12 0 54 11 95 25 40 14 80 25
89 25 28 0 111 62 121 92 6 15 14 28 19 28 5 0 9 5 9 10 0 14 -27 13 -32 -2
-8 -23 -203 -59 -231 -41 -6 4 -43 8 -82 9 -53 1 -83 8 -124 28 -30 14 -64 26
-76 26 -27 0 -85 28 -85 41 0 5 -11 11 -25 15 -25 6 -66 67 -78 117 -4 13 -16
27 -27 30 -18 5 -20 13 -20 81 0 42 4 76 10 76 5 0 12 15 15 33 4 18 15 43 25
57 22 30 52 29 218 -4 132 -27 300 -41 361 -31 41 7 167 76 188 104 15 19 17
45 3 36 -5 -3 -16 5 -25 18 -14 22 -14 28 6 73 14 31 36 59 60 76 45 32 49 51
16 73 -13 8 -34 34 -47 57 -13 24 -29 47 -37 51 -7 4 -13 15 -13 22 0 8 -7 15
-15 15 -8 0 -15 5 -15 10 0 6 -9 10 -20 10 -20 0 -62 23 -88 47 -7 7 -30 13
-50 14 -109 3 -146 9 -163 27 -13 15 -15 22 -6 31 8 8 8 11 -1 11 -7 0 -12 7
-12 16 0 8 -13 20 -30 25 -16 6 -30 15 -30 20 0 16 -29 9 -55 -13 -13 -11 -22
-26 -18 -31 3 -6 -9 -22 -27 -37 l-34 -28 -30 22 c-17 11 -34 26 -38 31 -12
16 -9 53 5 62 12 8 47 65 47 78 0 3 -4 3 -10 0 -6 -4 -10 5 -10 20 0 18 -6 29
-20 32 -10 3 -22 14 -25 24 -4 10 -18 21 -33 25 -15 3 -36 10 -47 16 -11 6
-17 7 -13 3 4 -4 -2 -23 -13 -42 -11 -19 -17 -38 -14 -44 4 -5 1 -9 -5 -9 -6
0 -8 -5 -5 -10 4 -6 -4 -19 -17 -30 -25 -21 -112 -28 -123 -10 -4 6 -20 9 -36
6 -20 -3 -32 0 -36 10 -3 8 -11 14 -18 14 -21 0 -68 69 -59 88 9 20 5 45 -7
53 -8 4 -12 29 -18 107 -1 6 -8 12 -16 12 -18 0 -19 12 -4 27 18 18 3 43 -25
43 -23 0 -25 3 -20 29 5 24 2 29 -20 35 -16 4 -34 22 -48 46 -13 22 -28 40
-34 40 -16 0 -26 30 -15 44 5 6 10 16 10 21 1 6 9 10 19 10 13 0 16 -7 14 -27
-4 -35 25 -39 30 -5 2 17 10 22 31 22 16 1 32 7 37 15 7 11 20 12 77 2 77 -13
293 -3 315 15 13 11 105 33 135 33 15 0 15 -2 -1 -13 -16 -12 -16 -18 -6 -56
13 -49 6 -104 -20 -158 -60 -125 -46 -214 41 -258 16 -9 29 -22 29 -30 0 -8 6
-15 13 -15 7 0 18 -9 24 -19 7 -11 23 -22 35 -24 l23 -4 -22 -8 c-21 -7 -21
-7 -2 -26 23 -23 39 -25 39 -4 0 8 5 15 11 15 6 0 9 6 6 14 -4 9 0 12 13 9 12
-3 22 3 29 16 12 22 64 30 76 11 13 -21 73 -42 92 -31 28 14 174 49 206 49 19
0 27 -6 27 -18 0 -9 8 -25 19 -34 17 -16 20 -16 35 -1 9 9 16 22 16 28 0 7 11
29 25 49 60 88 0 134 -112 87 -30 -12 -37 -11 -95 20 -79 42 -95 56 -120 105
-16 31 -19 50 -13 93 3 29 11 51 16 48 5 -4 9 0 9 9 0 8 5 16 11 18 17 6 23
138 11 221 -6 39 -12 112 -14 161 l-3 90 47 15 c46 14 48 14 82 -12 19 -15 37
-35 41 -46 3 -10 22 -25 43 -33 31 -12 40 -22 50 -56 12 -38 11 -44 -9 -71
-25 -34 -20 -76 15 -119 13 -15 34 -46 47 -68 53 -91 190 -181 290 -192 77 -7
248 38 360 96 16 8 16 -32 -1 -119 -10 -52 -23 -112 -30 -134 -6 -22 -19 -76
-28 -120 -9 -44 -19 -82 -22 -85 -14 -10 -17 -61 -4 -77 12 -17 14 -17 47 0
47 26 111 89 183 183 75 97 108 156 145 257 16 44 49 120 73 171 24 50 46 98
49 106 4 9 6 7 6 -7 1 -15 7 -23 19 -23 10 0 22 -3 26 -7 3 -4 29 -6 56 -4 40
2 50 -1 50 -13 0 -13 -13 -16 -66 -16 -42 0 -70 -5 -79 -14 -21 -21 -8 -26 65
-26 68 0 130 -15 130 -31 0 -5 -12 -9 -26 -9 -14 0 -23 -4 -19 -10 3 -5 27
-10 53 -10 51 0 128 -18 118 -27 -3 -4 -1 -12 5 -20 17 -20 99 -17 114 4 11
15 15 15 29 4 9 -7 23 -10 32 -7 22 9 44 -11 44 -40 0 -30 35 -33 43 -4 4 17
14 20 61 20 l56 0 0 -32 c0 -18 5 -51 12 -73 6 -22 10 -46 9 -54 -3 -14 32
-51 49 -51 5 0 10 -22 10 -50 0 -66 25 -69 41 -6 17 70 66 64 100 -12 l13 -29
21 26 c12 14 25 34 28 45 6 15 14 17 43 13 47 -8 74 -33 74 -69 0 -27 15 -39
22 -17 6 17 84 21 98 4 7 -9 29 -15 51 -15 43 0 46 -4 24 -26 -23 -23 -18 -34
15 -34 l30 0 0 -60 0 -60 40 0 c33 0 40 -3 40 -20 0 -17 7 -20 43 -21 l42 -2
-35 -6 c-35 -6 -39 -14 -31 -66 0 -6 19 -11 41 -11 60 -2 100 -22 100 -50 0
-23 2 -24 80 -24 l80 0 0 1955 0 1955 -4000 0 -4000 0 0 -1185z m4808 -847
l-3 -72 34 -23 c46 -31 63 -29 107 12 28 26 43 34 58 29 29 -9 36 -22 36 -74
0 -52 25 -90 80 -119 32 -17 35 -22 32 -57 -5 -81 -7 -94 -14 -94 -5 0 -8 -9
-8 -20 0 -10 -9 -24 -19 -29 -10 -6 -27 -31 -37 -56 -15 -34 -23 -43 -37 -39
-10 3 -30 -5 -49 -21 -42 -36 -69 -30 -93 23 -12 26 -26 42 -37 42 -21 0 -23
13 -7 41 9 17 7 21 -8 25 -16 5 -43 45 -43 66 0 4 9 8 20 8 28 0 26 5 -23 53
-24 23 -46 50 -50 60 -5 13 -13 16 -32 11 -39 -10 -54 18 -55 98 0 37 5 79 11
95 15 41 90 113 117 113 23 0 24 -2 20 -72z m-4074 -237 c5 -8 -84 -3 -93 5
-2 2 16 4 42 4 25 0 48 -4 51 -9z m3615 -56 c19 -9 31 -23 31 -35 0 -16 -6
-19 -32 -16 -37 4 -72 -10 -63 -25 4 -5 3 -9 -2 -9 -12 0 -40 20 -29 20 20 0
-37 42 -70 51 -36 10 -46 35 -16 41 33 7 150 -11 181 -27z m-2709 -35 c0 -5
-9 -10 -20 -10 -11 0 -20 5 -20 10 0 6 9 10 20 10 11 0 20 -4 20 -10z m4070
-10 c52 -27 94 -82 86 -114 -4 -15 -1 -26 7 -29 7 -3 5 -6 -5 -6 -10 -1 -18 4
-18 9 0 6 -6 10 -13 10 -7 0 -22 10 -33 23 -11 12 -33 31 -48 42 -59 41 -79
62 -72 73 11 18 52 14 96 -8z m-118 -154 c23 -22 26 -31 18 -47 -9 -15 -20
-19 -53 -17 -23 2 -47 9 -53 17 -9 11 -11 10 -9 -7 1 -12 4 -25 8 -28 17 -17
4 -25 -30 -19 -45 7 -46 8 -47 42 -1 33 -34 53 -89 53 -52 0 -47 27 10 56 l43
22 87 -22 c63 -16 95 -30 115 -50z m-1202 -96 c0 -14 -9 -17 -47 -16 -57 1
-64 8 -51 50 20 59 29 62 65 21 18 -21 33 -46 33 -55z m100 80 c0 -5 -4 -10
-10 -10 -5 0 -10 5 -10 10 0 6 5 10 10 10 6 0 10 -4 10 -10z m1330 -20 c0 -5
-4 -10 -10 -10 -5 0 -10 5 -10 10 0 6 5 10 10 10 6 0 10 -4 10 -10z m-685 -71
c0 -28 -29 -38 -39 -13 -7 19 11 47 28 41 6 -2 11 -14 11 -28z m-681 -42 c23
-17 24 -62 2 -86 -9 -9 -16 -22 -16 -27 0 -15 -52 -86 -90 -124 -19 -20 -54
-41 -77 -48 -60 -18 -154 -1 -202 35 -56 43 -88 76 -95 99 -6 20 -3 21 71 23
42 1 79 4 82 6 2 3 9 1 15 -4 7 -6 38 2 81 19 38 15 76 25 84 22 9 -3 12 -1 7
6 -4 7 8 15 33 23 22 7 38 16 35 21 -3 5 -11 5 -17 0 -7 -5 -27 -7 -45 -5 -25
4 -32 9 -28 22 3 9 -5 3 -19 -14 -23 -28 -25 -29 -42 -12 -26 25 -8 35 81 41
44 4 82 8 84 11 10 9 38 5 56 -8z m835 -68 c6 -18 11 -39 11 -48 0 -9 14 -25
32 -35 29 -18 30 -20 13 -32 -10 -8 -33 -12 -52 -9 -25 3 -33 0 -33 -12 0 -9
3 -14 6 -10 6 5 21 -6 77 -55 18 -16 38 -29 47 -29 54 -6 210 -3 210 4 0 17
42 6 47 -13 13 -48 96 -60 113 -16 4 11 16 28 26 37 23 20 82 30 87 15 5 -13
-29 -105 -46 -124 -23 -28 -92 -55 -139 -55 -27 0 -48 -3 -48 -7 0 -13 -31
-21 -92 -26 -48 -4 -68 0 -120 25 -70 31 -152 110 -185 176 -23 45 -43 129
-43 180 0 29 4 35 20 35 11 0 23 7 26 15 10 25 31 17 43 -16z m-1454 -60 c11
-16 1 -19 -13 -3 -7 8 -8 14 -3 14 5 0 13 -5 16 -11z m1581 -86 c-7 -7 -26 7
-26 19 0 6 6 6 15 -2 9 -7 13 -15 11 -17z m-1472 -44 c33 -19 47 -39 29 -39
-15 0 -73 40 -73 50 0 14 4 13 44 -11z m3015 -265 c2 -2 -14 -4 -37 -4 -23 0
-42 5 -42 10 0 10 67 4 79 -6z m938 -499 c3 -9 3 -18 0 -22 -11 -10 -57 7 -57
22 0 20 49 20 57 0z m-5117 -1132 c0 -18 -17 -16 -24 3 -8 22 4 40 15 23 5 -8
9 -20 9 -26z"/>
<path d="M5100 5560 c0 -5 5 -10 10 -10 6 0 10 5 10 10 0 6 -4 10 -10 10 -5 0
-10 -4 -10 -10z"/>
<path d="M5450 5430 c0 -5 7 -10 16 -10 8 0 12 5 9 10 -3 6 -10 10 -16 10 -5
0 -9 -4 -9 -10z"/>
<path d="M5664 4938 c4 -33 32 -35 38 -3 4 21 2 25 -18 25 -19 0 -23 -5 -20
-22z"/>
<path d="M540 5691 c0 -5 -12 -12 -27 -14 -16 -2 7 -5 50 -6 62 -1 77 2 77 14
0 11 -12 15 -50 15 -27 0 -50 -4 -50 -9z"/>
<path d="M693 5673 c9 -2 25 -2 35 0 9 3 1 5 -18 5 -19 0 -27 -2 -17 -5z"/>
<path d="M440 5650 c0 -6 40 -10 100 -10 60 0 100 4 100 10 0 6 -40 10 -100
10 -60 0 -100 -4 -100 -10z"/>
<path d="M310 5623 c-13 -15 -12 -16 4 -10 10 4 24 7 32 7 8 0 14 5 14 10 0
16 -34 11 -50 -7z"/>
<path d="M753 5623 c9 -2 25 -2 35 0 9 3 1 5 -18 5 -19 0 -27 -2 -17 -5z"/>
<path d="M0 5605 c0 -11 11 -15 43 -13 36 1 38 2 10 5 -18 2 -33 8 -33 14 0 5
-4 9 -10 9 -5 0 -10 -7 -10 -15z"/>
<path d="M5060 5201 c0 -6 5 -13 10 -16 6 -3 10 1 10 9 0 9 -4 16 -10 16 -5 0
-10 -4 -10 -9z"/>
<path d="M7553 4273 c-47 -6 -41 -23 7 -23 29 0 40 4 40 15 0 8 -3 14 -7 13
-5 0 -23 -3 -40 -5z"/>
<path d="M5490 3850 c0 -5 5 -10 10 -10 6 0 10 5 10 10 0 6 -4 10 -10 10 -5 0
-10 -4 -10 -10z"/>
<path d="M5294 3555 c-9 -22 1 -29 15 -11 8 10 9 16 1 21 -5 3 -13 -1 -16 -10z"/>
<path d="M5260 3430 c-14 -26 -12 -38 3 -19 7 9 21 18 32 21 19 4 18 4 -3 10
-16 4 -25 1 -32 -12z"/>
<path d="M5325 3420 c-3 -5 -1 -10 4 -10 6 0 11 5 11 10 0 6 -2 10 -4 10 -3 0
-8 -4 -11 -10z"/>
<path d="M5266 3365 c-22 -19 -36 -35 -31 -35 5 0 -8 -15 -28 -34 -21 -19 -37
-43 -37 -55 0 -21 1 -21 25 -5 14 9 25 20 25 25 0 5 20 31 45 59 25 28 45 57
45 65 0 20 1 20 -44 -20z"/>
<path d="M3260 1756 c0 -2 7 -6 15 -10 8 -3 15 -1 15 4 0 6 -7 10 -15 10 -8 0
-15 -2 -15 -4z"/>
</g>
</svg>
